<mxfile host="app.diagrams.net" modified="2020-11-09T14:19:59.726Z" agent="5.0 (Macintosh; Intel Mac OS X 10_15_7) AppleWebKit/537.36 (KHTML, like Gecko) Chrome/86.0.4240.183 Safari/537.36" etag="xGJUEeu3Hw1C1XeA1cXB" version="13.9.2" type="github">
  <diagram name="Page-1" id="74e2e168-ea6b-b213-b513-2b3c1d86103e">
    <mxGraphModel dx="1117" dy="629" grid="1" gridSize="10" guides="1" tooltips="1" connect="1" arrows="1" fold="1" page="1" pageScale="1" pageWidth="1100" pageHeight="850" background="#ffffff" math="0" shadow="0">
      <root>
        <mxCell id="0" />
        <mxCell id="1" parent="0" />
        <mxCell id="RN37qcFzK1oXaAnjsQLj-27" value="&lt;font&gt;&lt;b&gt;&lt;font size=&quot;1&quot;&gt;FEATURE TASK JIRA&lt;/font&gt;&lt;br&gt;&lt;/b&gt;&lt;/font&gt;" style="rounded=1;whiteSpace=wrap;html=1;shadow=0;labelBackgroundColor=none;strokeWidth=1;fontFamily=Verdana;fontSize=8;align=center;fillColor=#dae8fc;strokeColor=#6c8ebf;" vertex="1" parent="1">
          <mxGeometry x="170" y="190" width="80" height="60" as="geometry" />
        </mxCell>
        <mxCell id="RN37qcFzK1oXaAnjsQLj-28" value="dev task" style="rounded=1;whiteSpace=wrap;html=1;shadow=0;labelBackgroundColor=none;strokeWidth=1;fontFamily=Verdana;fontSize=8;align=center;fillColor=#d5e8d4;strokeColor=#82b366;" vertex="1" parent="1">
          <mxGeometry x="290" y="160" width="60" height="30" as="geometry" />
        </mxCell>
        <mxCell id="RN37qcFzK1oXaAnjsQLj-32" value="dev task" style="rounded=1;whiteSpace=wrap;html=1;shadow=0;labelBackgroundColor=none;strokeWidth=1;fontFamily=Verdana;fontSize=8;align=center;fillColor=#d5e8d4;strokeColor=#82b366;" vertex="1" parent="1">
          <mxGeometry x="290" y="205" width="60" height="30" as="geometry" />
        </mxCell>
        <mxCell id="RN37qcFzK1oXaAnjsQLj-33" value="dev task" style="rounded=1;whiteSpace=wrap;html=1;shadow=0;labelBackgroundColor=none;strokeWidth=1;fontFamily=Verdana;fontSize=8;align=center;fillColor=#d5e8d4;strokeColor=#82b366;" vertex="1" parent="1">
          <mxGeometry x="290" y="250" width="60" height="30" as="geometry" />
        </mxCell>
        <mxCell id="RN37qcFzK1oXaAnjsQLj-34" value="" style="endArrow=none;dashed=1;html=1;dashPattern=1 3;strokeWidth=2;exitX=1;exitY=0.5;exitDx=0;exitDy=0;" edge="1" parent="1">
          <mxGeometry width="50" height="50" relative="1" as="geometry">
            <mxPoint x="350" y="264.55999999999995" as="sourcePoint" />
            <mxPoint x="420" y="264.55999999999995" as="targetPoint" />
          </mxGeometry>
        </mxCell>
        <mxCell id="RN37qcFzK1oXaAnjsQLj-35" value="" style="endArrow=none;dashed=1;html=1;dashPattern=1 3;strokeWidth=2;exitX=1;exitY=0.5;exitDx=0;exitDy=0;" edge="1" parent="1">
          <mxGeometry width="50" height="50" relative="1" as="geometry">
            <mxPoint x="350" y="174.98" as="sourcePoint" />
            <mxPoint x="420" y="174.98" as="targetPoint" />
          </mxGeometry>
        </mxCell>
        <mxCell id="RN37qcFzK1oXaAnjsQLj-36" value="" style="endArrow=none;dashed=1;html=1;dashPattern=1 3;strokeWidth=2;exitX=1;exitY=0.5;exitDx=0;exitDy=0;" edge="1" parent="1">
          <mxGeometry width="50" height="50" relative="1" as="geometry">
            <mxPoint x="350" y="219.98" as="sourcePoint" />
            <mxPoint x="420" y="219.98" as="targetPoint" />
          </mxGeometry>
        </mxCell>
        <mxCell id="RN37qcFzK1oXaAnjsQLj-37" value="dev task" style="rounded=1;whiteSpace=wrap;html=1;shadow=0;labelBackgroundColor=none;strokeWidth=1;fontFamily=Verdana;fontSize=8;align=center;fillColor=#d5e8d4;strokeColor=#82b366;" vertex="1" parent="1">
          <mxGeometry x="410" y="160" width="60" height="30" as="geometry" />
        </mxCell>
        <mxCell id="RN37qcFzK1oXaAnjsQLj-38" value="dev task" style="rounded=1;whiteSpace=wrap;html=1;shadow=0;labelBackgroundColor=none;strokeWidth=1;fontFamily=Verdana;fontSize=8;align=center;fillColor=#d5e8d4;strokeColor=#82b366;" vertex="1" parent="1">
          <mxGeometry x="410" y="205" width="60" height="30" as="geometry" />
        </mxCell>
        <mxCell id="RN37qcFzK1oXaAnjsQLj-39" value="dev task" style="rounded=1;whiteSpace=wrap;html=1;shadow=0;labelBackgroundColor=none;strokeWidth=1;fontFamily=Verdana;fontSize=8;align=center;fillColor=#d5e8d4;strokeColor=#82b366;" vertex="1" parent="1">
          <mxGeometry x="410" y="250" width="60" height="30" as="geometry" />
        </mxCell>
        <mxCell id="RN37qcFzK1oXaAnjsQLj-40" value="&lt;font style=&quot;font-size: 8px&quot;&gt;development&lt;/font&gt;" style="text;html=1;strokeColor=none;fillColor=none;align=center;verticalAlign=middle;whiteSpace=wrap;rounded=0;" vertex="1" parent="1">
          <mxGeometry x="360" y="160" width="40" height="10" as="geometry" />
        </mxCell>
        <mxCell id="RN37qcFzK1oXaAnjsQLj-41" value="&lt;font style=&quot;font-size: 8px&quot;&gt;development&lt;/font&gt;" style="text;html=1;strokeColor=none;fillColor=none;align=center;verticalAlign=middle;whiteSpace=wrap;rounded=0;" vertex="1" parent="1">
          <mxGeometry x="360" y="200" width="40" height="20" as="geometry" />
        </mxCell>
        <mxCell id="RN37qcFzK1oXaAnjsQLj-42" value="&lt;font style=&quot;font-size: 8px&quot;&gt;development&lt;/font&gt;" style="text;html=1;strokeColor=none;fillColor=none;align=center;verticalAlign=middle;whiteSpace=wrap;rounded=0;" vertex="1" parent="1">
          <mxGeometry x="360" y="250" width="40" height="10" as="geometry" />
        </mxCell>
        <mxCell id="RN37qcFzK1oXaAnjsQLj-49" value="" style="endArrow=none;dashed=1;html=1;dashPattern=1 3;strokeWidth=2;exitX=1;exitY=0.5;exitDx=0;exitDy=0;" edge="1" parent="1">
          <mxGeometry width="50" height="50" relative="1" as="geometry">
            <mxPoint x="470" y="264.55999999999995" as="sourcePoint" />
            <mxPoint x="540" y="264.55999999999995" as="targetPoint" />
          </mxGeometry>
        </mxCell>
        <mxCell id="RN37qcFzK1oXaAnjsQLj-50" value="" style="endArrow=none;dashed=1;html=1;dashPattern=1 3;strokeWidth=2;exitX=1;exitY=0.5;exitDx=0;exitDy=0;" edge="1" parent="1">
          <mxGeometry width="50" height="50" relative="1" as="geometry">
            <mxPoint x="470" y="174.98" as="sourcePoint" />
            <mxPoint x="540" y="174.98" as="targetPoint" />
          </mxGeometry>
        </mxCell>
        <mxCell id="RN37qcFzK1oXaAnjsQLj-51" value="" style="endArrow=none;dashed=1;html=1;dashPattern=1 3;strokeWidth=2;exitX=1;exitY=0.5;exitDx=0;exitDy=0;" edge="1" parent="1">
          <mxGeometry width="50" height="50" relative="1" as="geometry">
            <mxPoint x="470" y="219.98" as="sourcePoint" />
            <mxPoint x="540" y="219.98" as="targetPoint" />
          </mxGeometry>
        </mxCell>
        <mxCell id="RN37qcFzK1oXaAnjsQLj-52" value="&lt;font style=&quot;font-size: 8px&quot;&gt;testing&lt;/font&gt;" style="text;html=1;strokeColor=none;fillColor=none;align=center;verticalAlign=middle;whiteSpace=wrap;rounded=0;" vertex="1" parent="1">
          <mxGeometry x="470" y="160" width="40" height="10" as="geometry" />
        </mxCell>
        <mxCell id="RN37qcFzK1oXaAnjsQLj-53" value="&lt;font style=&quot;font-size: 8px&quot;&gt;testing&lt;/font&gt;" style="text;html=1;strokeColor=none;fillColor=none;align=center;verticalAlign=middle;whiteSpace=wrap;rounded=0;" vertex="1" parent="1">
          <mxGeometry x="470" y="200" width="40" height="20" as="geometry" />
        </mxCell>
        <mxCell id="RN37qcFzK1oXaAnjsQLj-54" value="&lt;font style=&quot;font-size: 8px&quot;&gt;testing&lt;/font&gt;" style="text;html=1;strokeColor=none;fillColor=none;align=center;verticalAlign=middle;whiteSpace=wrap;rounded=0;" vertex="1" parent="1">
          <mxGeometry x="470" y="250" width="40" height="10" as="geometry" />
        </mxCell>
        <mxCell id="RN37qcFzK1oXaAnjsQLj-55" value="dev task" style="rounded=1;whiteSpace=wrap;html=1;shadow=0;labelBackgroundColor=none;strokeWidth=1;fontFamily=Verdana;fontSize=8;align=center;fillColor=#60a917;strokeColor=#2D7600;fontColor=#ffffff;" vertex="1" parent="1">
          <mxGeometry x="510" y="160" width="60" height="30" as="geometry" />
        </mxCell>
        <mxCell id="RN37qcFzK1oXaAnjsQLj-56" value="dev task" style="rounded=1;whiteSpace=wrap;html=1;shadow=0;labelBackgroundColor=none;strokeWidth=1;fontFamily=Verdana;fontSize=8;align=center;fillColor=#60a917;strokeColor=#2D7600;fontColor=#ffffff;" vertex="1" parent="1">
          <mxGeometry x="510" y="205" width="60" height="30" as="geometry" />
        </mxCell>
        <mxCell id="RN37qcFzK1oXaAnjsQLj-57" value="dev task" style="rounded=1;whiteSpace=wrap;html=1;shadow=0;labelBackgroundColor=none;strokeWidth=1;fontFamily=Verdana;fontSize=8;align=center;fillColor=#60a917;strokeColor=#2D7600;fontColor=#ffffff;" vertex="1" parent="1">
          <mxGeometry x="510" y="250" width="60" height="30" as="geometry" />
        </mxCell>
        <mxCell id="RN37qcFzK1oXaAnjsQLj-58" value="" style="endArrow=classic;html=1;" edge="1" parent="1">
          <mxGeometry width="50" height="50" relative="1" as="geometry">
            <mxPoint x="570" y="180" as="sourcePoint" />
            <mxPoint x="600" y="200" as="targetPoint" />
          </mxGeometry>
        </mxCell>
        <mxCell id="RN37qcFzK1oXaAnjsQLj-59" value="" style="endArrow=classic;html=1;exitX=1.056;exitY=0.492;exitDx=0;exitDy=0;exitPerimeter=0;" edge="1" parent="1">
          <mxGeometry width="50" height="50" relative="1" as="geometry">
            <mxPoint x="570" y="260" as="sourcePoint" />
            <mxPoint x="600" y="240" as="targetPoint" />
          </mxGeometry>
        </mxCell>
        <mxCell id="RN37qcFzK1oXaAnjsQLj-60" value="" style="endArrow=classic;html=1;" edge="1" parent="1">
          <mxGeometry width="50" height="50" relative="1" as="geometry">
            <mxPoint x="570" y="220" as="sourcePoint" />
            <mxPoint x="600" y="220" as="targetPoint" />
          </mxGeometry>
        </mxCell>
        <mxCell id="RN37qcFzK1oXaAnjsQLj-61" value="&lt;font style=&quot;font-size: 9px&quot;&gt;&lt;b&gt;FEATURE&lt;/b&gt;&lt;/font&gt;" style="rounded=1;whiteSpace=wrap;html=1;shadow=0;labelBackgroundColor=none;strokeWidth=1;fontFamily=Verdana;fontSize=8;align=center;fillColor=#008a00;strokeColor=#005700;fontColor=#ffffff;" vertex="1" parent="1">
          <mxGeometry x="600" y="190" width="60" height="60" as="geometry" />
        </mxCell>
        <mxCell id="RN37qcFzK1oXaAnjsQLj-62" value="" style="endArrow=classic;html=1;" edge="1" parent="1">
          <mxGeometry width="50" height="50" relative="1" as="geometry">
            <mxPoint x="660" y="220" as="sourcePoint" />
            <mxPoint x="700" y="220" as="targetPoint" />
          </mxGeometry>
        </mxCell>
        <mxCell id="RN37qcFzK1oXaAnjsQLj-65" value="&lt;span style=&quot;font-size: 8px&quot;&gt;deploy&lt;/span&gt;" style="text;html=1;strokeColor=none;fillColor=none;align=center;verticalAlign=middle;whiteSpace=wrap;rounded=0;" vertex="1" parent="1">
          <mxGeometry x="660" y="205" width="40" height="10" as="geometry" />
        </mxCell>
        <mxCell id="RN37qcFzK1oXaAnjsQLj-67" value="&lt;font style=&quot;font-size: 9px&quot;&gt;&lt;b&gt;FEATURE&lt;/b&gt;&lt;/font&gt;" style="rounded=1;whiteSpace=wrap;html=1;shadow=0;labelBackgroundColor=none;strokeWidth=1;fontFamily=Verdana;fontSize=8;align=center;fillColor=#008a00;strokeColor=#005700;fontColor=#ffffff;" vertex="1" parent="1">
          <mxGeometry x="700" y="190" width="60" height="60" as="geometry" />
        </mxCell>
        <mxCell id="RN37qcFzK1oXaAnjsQLj-68" value="" style="endArrow=classic;html=1;" edge="1" parent="1">
          <mxGeometry width="50" height="50" relative="1" as="geometry">
            <mxPoint x="760" y="220" as="sourcePoint" />
            <mxPoint x="800" y="220" as="targetPoint" />
          </mxGeometry>
        </mxCell>
        <mxCell id="RN37qcFzK1oXaAnjsQLj-69" value="&lt;p&gt;&lt;span style=&quot;font-size: 8px&quot;&gt;testing&lt;/span&gt;&lt;/p&gt;" style="text;html=1;strokeColor=none;fillColor=none;align=center;verticalAlign=middle;whiteSpace=wrap;rounded=0;" vertex="1" parent="1">
          <mxGeometry x="760" y="190" width="40" height="40" as="geometry" />
        </mxCell>
        <mxCell id="RN37qcFzK1oXaAnjsQLj-70" value="&lt;font style=&quot;font-size: 9px&quot;&gt;&lt;b&gt;FEATURE&lt;/b&gt;&lt;/font&gt;" style="rounded=1;whiteSpace=wrap;html=1;shadow=0;labelBackgroundColor=none;strokeWidth=1;fontFamily=Verdana;fontSize=8;align=center;fillColor=#1ba1e2;strokeColor=#006EAF;fontColor=#ffffff;" vertex="1" parent="1">
          <mxGeometry x="800" y="190" width="60" height="60" as="geometry" />
        </mxCell>
        <mxCell id="RN37qcFzK1oXaAnjsQLj-71" value="" style="endArrow=none;dashed=1;html=1;dashPattern=1 3;strokeWidth=2;exitX=1.001;exitY=0.888;exitDx=0;exitDy=0;exitPerimeter=0;" edge="1" parent="1" source="RN37qcFzK1oXaAnjsQLj-27">
          <mxGeometry width="50" height="50" relative="1" as="geometry">
            <mxPoint x="220" y="264.55999999999995" as="sourcePoint" />
            <mxPoint x="290" y="264.55999999999995" as="targetPoint" />
          </mxGeometry>
        </mxCell>
        <mxCell id="RN37qcFzK1oXaAnjsQLj-72" value="" style="endArrow=none;dashed=1;html=1;dashPattern=1 3;strokeWidth=2;exitX=1.012;exitY=0.13;exitDx=0;exitDy=0;exitPerimeter=0;" edge="1" parent="1" source="RN37qcFzK1oXaAnjsQLj-27">
          <mxGeometry width="50" height="50" relative="1" as="geometry">
            <mxPoint x="220" y="174.98000000000002" as="sourcePoint" />
            <mxPoint x="290" y="174.98000000000002" as="targetPoint" />
          </mxGeometry>
        </mxCell>
        <mxCell id="RN37qcFzK1oXaAnjsQLj-73" value="" style="endArrow=none;dashed=1;html=1;dashPattern=1 3;strokeWidth=2;" edge="1" parent="1">
          <mxGeometry width="50" height="50" relative="1" as="geometry">
            <mxPoint x="250" y="220" as="sourcePoint" />
            <mxPoint x="290" y="219.98000000000002" as="targetPoint" />
          </mxGeometry>
        </mxCell>
        <mxCell id="RN37qcFzK1oXaAnjsQLj-75" value="" style="endArrow=classic;html=1;" edge="1" parent="1">
          <mxGeometry width="50" height="50" relative="1" as="geometry">
            <mxPoint x="860" y="220" as="sourcePoint" />
            <mxPoint x="900" y="220" as="targetPoint" />
          </mxGeometry>
        </mxCell>
        <mxCell id="RN37qcFzK1oXaAnjsQLj-76" value="&lt;span style=&quot;font-size: 8px&quot;&gt;deploy&lt;/span&gt;" style="text;html=1;strokeColor=none;fillColor=none;align=center;verticalAlign=middle;whiteSpace=wrap;rounded=0;" vertex="1" parent="1">
          <mxGeometry x="860" y="200" width="40" height="10" as="geometry" />
        </mxCell>
        <mxCell id="RN37qcFzK1oXaAnjsQLj-81" value="&lt;font style=&quot;font-size: 9px&quot;&gt;&lt;b&gt;FEATURE READY&lt;/b&gt;&lt;/font&gt;" style="rounded=1;whiteSpace=wrap;html=1;shadow=0;labelBackgroundColor=none;strokeWidth=1;fontFamily=Verdana;fontSize=8;align=center;fillColor=#1ba1e2;strokeColor=#006EAF;fontColor=#ffffff;" vertex="1" parent="1">
          <mxGeometry x="900" y="190" width="60" height="60" as="geometry" />
        </mxCell>
        <mxCell id="RN37qcFzK1oXaAnjsQLj-82" value="" style="endArrow=classic;html=1;" edge="1" parent="1">
          <mxGeometry relative="1" as="geometry">
            <mxPoint x="320" y="140" as="sourcePoint" />
            <mxPoint x="680" y="140" as="targetPoint" />
          </mxGeometry>
        </mxCell>
        <mxCell id="RN37qcFzK1oXaAnjsQLj-83" value="dynamic staging&amp;nbsp;" style="edgeLabel;resizable=0;html=1;align=center;verticalAlign=middle;" connectable="0" vertex="1" parent="RN37qcFzK1oXaAnjsQLj-82">
          <mxGeometry relative="1" as="geometry" />
        </mxCell>
        <mxCell id="RN37qcFzK1oXaAnjsQLj-84" value="" style="endArrow=classic;html=1;" edge="1" parent="1">
          <mxGeometry relative="1" as="geometry">
            <mxPoint x="680" y="140" as="sourcePoint" />
            <mxPoint x="880" y="140" as="targetPoint" />
          </mxGeometry>
        </mxCell>
        <mxCell id="RN37qcFzK1oXaAnjsQLj-85" value="staging" style="edgeLabel;resizable=0;html=1;align=center;verticalAlign=middle;" connectable="0" vertex="1" parent="RN37qcFzK1oXaAnjsQLj-84">
          <mxGeometry relative="1" as="geometry" />
        </mxCell>
        <mxCell id="RN37qcFzK1oXaAnjsQLj-86" value="" style="endArrow=classic;html=1;" edge="1" parent="1">
          <mxGeometry relative="1" as="geometry">
            <mxPoint x="875" y="140" as="sourcePoint" />
            <mxPoint x="960" y="140" as="targetPoint" />
          </mxGeometry>
        </mxCell>
        <mxCell id="RN37qcFzK1oXaAnjsQLj-87" value="prod" style="edgeLabel;resizable=0;html=1;align=center;verticalAlign=middle;" connectable="0" vertex="1" parent="RN37qcFzK1oXaAnjsQLj-86">
          <mxGeometry relative="1" as="geometry" />
        </mxCell>
      </root>
    </mxGraphModel>
  </diagram>
</mxfile>
